<?xml version="1.0" encoding="utf-8"?>
<svg viewBox="99.944 69.779 110.3112 46" width="110.311" height="46" xmlns="http://www.w3.org/2000/svg">
  <g>
    <path d="M 207.337 92.53 L 210.158 87.752 C 210.271 87.514 210.286 87.241 210.2 86.994 L 204.615 70.994 C 204.443 70.506 203.931 70.229 203.435 70.35 L 187.017 74.35 C 186.704 74.428 186.447 74.651 186.325 74.951 L 184.579 79.323 L 179.255 79.323 C 178.978 79.323 178.708 79.44 178.521 79.643 L 166.521 92.643 C 166.15 93.045 166.169 93.67 166.564 94.045 L 179.15 106.045 C 179.333 106.225 179.583 106.323 179.837 106.323 L 185.575 106.323 L 187.325 110.694 C 187.454 111.018 187.743 111.248 188.083 111.307 L 205.544 114.307 C 205.599 114.319 205.658 114.323 205.712 114.323 C 206.177 114.323 206.587 114.002 206.689 113.537 L 210.232 97.307 C 210.286 97.057 210.243 96.795 210.107 96.573 L 207.337 92.53 Z M 184.579 79.323 L 198.673 76.741 L 191.255 91.323 L 174.423 91.323 L 184.579 79.323 Z M 185.579 106.323 L 174.423 95.323 L 191.255 95.323 L 200.005 108.491 L 185.579 106.323 Z M 203.642 106.221 L 195.255 93.323 L 202.587 78.741 L 207.337 92.534 L 203.642 106.221 Z"/>
    <path d="M 122.944 69.779 C 110.252 69.779 99.944 80.088 99.944 92.779 C 99.944 105.471 110.252 115.779 122.944 115.779 C 135.635 115.779 145.944 105.471 145.944 92.779 C 145.944 80.088 135.635 69.779 122.944 69.779 Z M 122.944 71.779 C 134.553 71.779 143.944 81.17 143.944 92.779 C 143.944 104.389 134.553 113.779 122.944 113.779 C 111.334 113.779 101.944 104.389 101.944 92.779 C 101.944 81.17 111.334 71.779 122.944 71.779 Z M 121.565 78.279 C 113.717 80.146 104.6 89.685 105.487 96.904 C 109.756 89.373 112.647 88.35 113.432 88.35 C 114.221 88.35 114.647 88.775 114.647 89.685 L 114.647 100.908 C 114.647 102.303 113.299 102.135 112.405 101.998 C 115.717 106.939 123.444 107.279 123.444 107.279 L 126.905 103.517 L 130.241 106.369 C 135.323 103.08 138.678 97.506 138.678 96.662 C 136.162 99.435 134.002 99.939 133.518 99.939 C 133.034 99.939 132.244 99.881 132.244 99.213 L 132.244 85.9 C 132.244 84.744 135.424 80.951 136.428 79.674 C 129.815 81.408 127.268 84.713 127.268 84.713 C 127.268 84.713 126.377 84.045 124.416 84.045 C 125.151 84.67 126.178 85.803 126.178 87.139 L 126.178 99.33 C 126.178 99.33 123.991 100.908 122.717 100.908 C 121.444 100.908 120.534 100.365 120.534 99.392 L 120.534 84.83 C 120.534 84.83 118.713 86.107 118.713 82.342 C 118.713 80.463 121.565 78.279 121.565 78.279 Z"/>
    <path d="M 155.035 99.348 L 155.035 93.93 L 149.658 93.93 L 149.658 91.666 L 155.035 91.666 L 155.035 86.289 L 157.326 86.289 L 157.326 91.666 L 162.704 91.666 L 162.704 93.93 L 157.326 93.93 L 157.326 99.348 Z" style="fill: rgb(51, 51, 51); opacity: 0.9;"/>
  </g>
</svg>